<?xml version="1.0" encoding="UTF-8" standalone="no"?>
<!DOCTYPE svg PUBLIC "-//W3C//DTD SVG 1.1//EN" "http://www.w3.org/Graphics/SVG/1.1/DTD/svg11.dtd">
<svg version="1.1" xmlns="http://www.w3.org/2000/svg" xmlns:xlink="http://www.w3.org/1999/xlink" preserveAspectRatio="xMidYMid meet" viewBox="0 0 640 640" width="512" height="512"><defs><path d="M162.75 457.25C159.63 460 159.5 464.75 162.25 467.88C201.87 511.13 258.13 536 316.75 536C366.37 536 414.38 518.38 452.13 486.38C455.25 483.75 455.63 479 453 475.75C450.37 472.63 445.63 472.25 442.38 474.88C407.38 504.63 362.75 521 316.63 521C262.5 520.88 210.13 497.88 173.38 457.75C170.63 454.75 165.88 454.5 162.75 457.25Z" id="btKBXLQIf"></path><path d="M623.94 8.37L624.22 8.39L624.51 8.43L624.79 8.48L625.07 8.54L625.35 8.61L625.63 8.69L625.9 8.78L626.17 8.88L626.44 9L626.7 9.12L626.96 9.25L627.22 9.4L627.47 9.56L627.71 9.72L627.95 9.9L628.18 10.09L628.41 10.29L628.63 10.5L628.84 10.73L629.03 10.96L629.22 11.2L629.4 11.45L629.57 11.7L629.72 11.96L629.87 12.22L630.01 12.48L630.13 12.75L630.24 13.02L630.34 13.3L630.44 13.57L630.52 13.86L630.59 14.14L630.65 14.42L630.7 14.71L630.73 15L630.76 15.28L630.78 15.57L630.78 15.86L630.78 16.15L630.76 16.44L630.73 16.72L630.69 17.01L630.65 17.29L630.59 17.57L630.52 17.85L630.44 18.13L630.34 18.4L630.24 18.67L630.13 18.94L630.01 19.2L629.87 19.46L629.72 19.72L629.57 19.97L629.4 20.21L629.22 20.45L629.03 20.68L628.84 20.91L628.63 21.12L567.75 82L568.8 83.24L569.83 84.49L570.83 85.75L571.81 87.03L572.78 88.32L573.71 89.62L574.63 90.94L575.53 92.27L576.4 93.61L577.25 94.97L578.08 96.34L578.88 97.72L579.67 99.11L580.43 100.51L581.16 101.92L581.88 103.35L582.57 104.79L583.23 106.23L583.88 107.69L584.5 109.16L585.1 110.63L585.67 112.12L586.22 113.62L586.75 115.12L587.25 116.63L587.73 118.16L588.19 119.69L588.62 121.23L589.02 122.77L589.41 124.33L589.76 125.89L590.1 127.46L590.41 129.04L590.69 130.62L590.95 132.21L591.19 133.81L591.4 135.41L591.58 137.02L591.74 138.63L591.88 140.25L623.75 140.25L624.06 140.26L624.36 140.27L624.66 140.3L624.96 140.35L625.26 140.4L625.55 140.46L625.83 140.54L626.11 140.62L626.39 140.72L626.66 140.82L626.93 140.94L627.19 141.06L627.44 141.2L627.69 141.34L627.94 141.5L628.17 141.66L628.4 141.83L628.62 142.01L628.84 142.2L629.05 142.39L629.25 142.59L629.44 142.8L629.62 143.02L629.8 143.25L629.96 143.48L630.12 143.72L630.27 143.96L630.41 144.21L630.54 144.47L630.66 144.73L630.77 145L630.87 145.27L630.95 145.55L631.03 145.84L631.1 146.12L631.15 146.42L631.19 146.71L631.23 147.01L631.24 147.32L631.25 147.63L631.24 147.93L631.23 148.24L631.19 148.54L631.15 148.84L631.1 149.13L631.03 149.42L630.95 149.71L630.87 149.99L630.77 150.27L630.66 150.54L630.54 150.8L630.41 151.06L630.27 151.32L630.12 151.57L629.96 151.81L629.8 152.05L629.62 152.28L629.44 152.5L629.25 152.71L629.05 152.92L628.84 153.12L628.62 153.31L628.4 153.5L628.17 153.67L627.94 153.84L627.69 154L627.44 154.15L627.19 154.28L626.93 154.41L626.66 154.53L626.39 154.64L626.11 154.74L625.83 154.83L625.55 154.91L625.26 154.97L624.96 155.03L624.66 155.07L624.36 155.1L624.06 155.12L623.75 155.13L592.12 155.13L591.98 156.92L591.8 158.71L591.58 160.5L591.34 162.28L591.06 164.05L590.75 165.82L590.41 167.58L590.04 169.33L589.64 171.07L589.21 172.8L588.74 174.53L588.25 176.24L587.72 177.95L587.17 179.64L586.58 181.33L585.97 183L585.33 184.66L584.65 186.31L583.95 187.95L583.22 189.58L582.46 191.19L581.67 192.79L580.86 194.38L580.01 195.95L579.14 197.51L578.24 199.05L577.31 200.58L576.36 202.09L575.38 203.58L574.37 205.06L573.34 206.53L572.28 207.97L571.19 209.4L570.08 210.81L568.94 212.2L567.78 213.58L566.59 214.93L565.38 216.27L564.14 217.58L562.88 218.88L564.31 222.22L565.71 225.58L567.05 228.96L568.35 232.36L569.59 235.76L570.8 239.19L571.95 242.62L573.06 246.08L574.11 249.54L575.13 253.02L576.09 256.5L577 260.01L577.87 263.52L578.69 267.04L579.46 270.57L580.18 274.12L580.86 277.67L581.48 281.23L582.06 284.8L582.59 288.38L583.08 291.96L583.51 295.55L583.9 299.15L584.23 302.76L584.52 306.37L584.76 309.98L584.95 313.6L585.09 317.23L585.19 320.85L585.23 324.48L585.23 328.12L585.18 331.76L585.08 335.39L584.93 339.03L584.73 342.67L584.48 346.32L584.18 349.96L583.84 353.6L583.44 357.24L583 360.88L582.26 366.19L581.41 371.48L580.46 376.74L579.42 381.96L578.27 387.15L577.03 392.3L575.69 397.42L574.25 402.5L572.71 407.54L571.08 412.54L569.36 417.5L567.53 422.42L565.62 427.3L563.61 432.13L561.51 436.92L559.31 441.66L557.03 446.35L554.65 451L552.18 455.59L549.63 460.14L546.98 464.64L544.24 469.08L541.42 473.47L538.51 477.8L535.52 482.08L532.44 486.3L529.27 490.47L526.02 494.58L522.68 498.62L519.26 502.61L515.76 506.53L512.18 510.39L508.51 514.19L504.76 517.92L500.94 521.58L497.03 525.18L493.05 528.71L488.98 532.17L484.84 535.56L480.63 538.88L477.05 541.58L473.45 544.22L469.81 546.8L466.14 549.31L462.43 551.75L458.69 554.13L454.92 556.44L451.12 558.69L447.29 560.87L443.43 562.98L439.54 565.03L435.62 567.01L431.68 568.93L427.71 570.77L423.72 572.55L419.7 574.27L415.65 575.91L411.58 577.49L407.49 579L403.38 580.44L399.24 581.81L395.08 583.11L390.91 584.35L386.71 585.51L382.5 586.61L378.26 587.64L374.01 588.59L369.75 589.48L365.46 590.3L361.16 591.05L356.85 591.72L352.53 592.33L348.19 592.87L343.83 593.33L339.47 593.73L335.1 594.05L330.71 594.3L326.32 594.48L321.91 594.59L317.5 594.63L316.63 594.62L315.76 594.62L314.88 594.61L314.01 594.6L313.14 594.59L312.26 594.57L311.39 594.56L310.51 594.54L309.64 594.51L308.76 594.48L307.88 594.45L307.01 594.42L306.13 594.39L305.25 594.35L304.38 594.31L303.5 594.27L302.62 594.22L301.74 594.17L300.86 594.12L299.98 594.06L299.11 594L298.23 593.94L297.35 593.88L296.47 593.82L295.59 593.75L294.71 593.67L293.83 593.6L292.95 593.52L292.07 593.44L291.19 593.36L290.3 593.27L289.42 593.19L288.54 593.09L287.66 593L286.78 592.9L285.9 592.8L285.02 592.7L284.14 592.59L283.26 592.49L282.38 592.38L277.66 591.72L272.97 590.98L268.3 590.16L263.66 589.26L259.04 588.28L254.45 587.23L249.89 586.09L245.35 584.88L240.84 583.6L236.36 582.23L231.91 580.79L227.49 579.28L223.11 577.69L218.75 576.02L214.43 574.28L210.15 572.47L205.9 570.58L201.68 568.62L197.5 566.59L193.36 564.48L189.26 562.31L185.19 560.06L181.17 557.75L177.18 555.36L173.24 552.9L169.34 550.38L165.48 547.78L161.67 545.12L157.9 542.39L154.18 539.59L150.5 536.72L146.87 533.79L143.29 530.79L139.76 527.73L136.27 524.6L132.84 521.41L129.46 518.15L126.13 514.83L122.85 511.45L119.63 508L119.71 509.91L119.82 511.82L119.97 513.72L120.14 515.62L120.35 517.51L120.6 519.4L120.87 521.28L121.17 523.16L121.51 525.03L121.88 526.89L122.28 528.75L122.7 530.6L123.16 532.44L123.65 534.27L124.18 536.09L124.73 537.9L125.31 539.7L125.92 541.49L126.56 543.28L127.23 545.05L127.94 546.81L128.67 548.55L129.43 550.29L130.22 552.01L131.04 553.72L131.89 555.41L132.76 557.1L133.67 558.76L134.6 560.42L135.57 562.05L136.56 563.67L137.58 565.28L138.63 566.87L139.71 568.44L140.81 570L141.94 571.53L143.1 573.05L144.29 574.55L145.51 576.04L146.75 577.5L147.31 578.14L147.88 578.79L148.46 579.42L149.04 580.05L149.62 580.68L150.21 581.3L150.8 581.92L151.4 582.54L152 583.15L152.6 583.75L153.21 584.35L153.83 584.95L154.45 585.54L155.07 586.13L155.7 586.71L156.33 587.29L156.96 587.86L157.6 588.43L158.24 588.99L158.89 589.55L159.54 590.1L160.2 590.65L160.86 591.19L161.52 591.73L162.19 592.26L162.86 592.79L163.53 593.31L164.21 593.83L164.89 594.34L165.58 594.85L166.27 595.35L166.96 595.85L167.65 596.34L168.35 596.83L169.06 597.31L169.76 597.78L170.47 598.25L171.19 598.71L171.9 599.17L172.63 599.63L173.01 599.87L173.39 600.13L173.76 600.4L174.12 600.68L174.47 600.97L174.81 601.26L175.15 601.57L175.47 601.88L175.78 602.21L176.08 602.54L176.37 602.88L176.64 603.22L176.91 603.58L177.17 603.94L177.42 604.3L177.65 604.68L177.88 605.06L178.09 605.44L178.29 605.84L178.48 606.23L178.66 606.64L178.83 607.05L178.99 607.46L179.13 607.88L179.26 608.3L179.38 608.73L179.49 609.16L179.59 609.59L179.67 610.03L179.74 610.47L179.8 610.91L179.85 611.36L179.88 611.81L179.9 612.26L179.91 612.71L179.9 613.17L179.89 613.63L179.85 614.08L179.81 614.54L179.75 615L179.68 615.46L179.59 615.91L179.5 616.35L179.39 616.79L179.27 617.23L179.13 617.66L178.99 618.08L178.83 618.5L178.67 618.9L178.49 619.31L178.3 619.7L178.1 620.09L177.88 620.47L177.66 620.85L177.43 621.21L177.18 621.57L176.93 621.92L176.67 622.26L176.39 622.6L176.11 622.92L175.82 623.24L175.51 623.55L175.2 623.85L174.88 624.14L174.55 624.42L174.21 624.69L173.86 624.95L173.51 625.2L173.14 625.44L172.77 625.67L172.39 625.89L172 626.1L171.61 626.3L171.2 626.49L170.79 626.66L170.37 626.83L169.94 626.98L169.51 627.13L169.07 627.26L168.63 627.38L167.83 627.58L167.03 627.78L166.23 627.97L165.43 628.16L164.64 628.34L163.84 628.52L163.04 628.69L162.24 628.86L161.44 629.02L160.63 629.18L159.83 629.33L159.03 629.48L158.23 629.62L157.43 629.76L156.63 629.89L155.82 630.02L155.02 630.14L154.22 630.25L153.41 630.36L152.61 630.47L151.81 630.57L151 630.66L150.2 630.75L149.39 630.84L148.59 630.92L147.78 630.99L146.98 631.06L146.17 631.13L145.37 631.19L144.56 631.24L143.75 631.29L142.95 631.34L142.14 631.37L141.34 631.41L140.53 631.44L139.72 631.46L138.92 631.48L138.11 631.49L137.31 631.5L136.5 631.5L133.93 631.47L131.37 631.4L128.81 631.27L126.26 631.09L123.72 630.87L121.18 630.59L118.65 630.26L116.13 629.88L113.62 629.45L111.12 628.98L108.63 628.45L106.16 627.88L103.69 627.25L101.24 626.58L98.81 625.86L96.38 625.09L93.98 624.27L91.59 623.41L89.21 622.49L86.86 621.53L84.52 620.52L82.21 619.47L79.91 618.37L77.63 617.22L75.38 616.02L73.14 614.78L70.93 613.49L68.75 612.16L66.58 610.78L64.45 609.35L62.34 607.88L60.25 606.36L58.2 604.8L56.17 603.2L54.17 601.54L52.2 599.85L50.26 598.11L48.35 596.33L46.47 594.5L44.63 592.63L42.92 590.83L41.25 589.01L39.63 587.15L38.04 585.28L36.49 583.37L34.98 581.44L33.52 579.49L32.09 577.51L30.7 575.5L29.36 573.47L28.05 571.42L26.79 569.34L25.56 567.25L24.38 565.13L23.25 562.99L22.15 560.83L21.09 558.64L20.08 556.44L19.11 554.22L18.19 551.98L17.3 549.73L16.46 547.45L15.67 545.16L14.92 542.86L14.21 540.53L13.54 538.19L12.92 535.84L12.35 533.47L11.82 531.09L11.33 528.69L10.89 526.29L10.5 523.87L10.15 521.43L9.84 518.99L9.59 516.54L9.38 514.07L9.21 511.6L9.09 509.12L9.02 506.62L9 504.13L9.02 501.63L9.09 499.15L9.21 496.68L9.38 494.21L9.59 491.75L9.84 489.3L10.15 486.86L10.5 484.43L10.89 482.02L11.33 479.61L11.82 477.22L12.35 474.83L12.92 472.47L13.54 470.11L14.21 467.77L14.92 465.45L15.67 463.14L16.46 460.85L17.3 458.57L18.19 456.31L19.11 454.07L20.08 451.85L21.09 449.65L22.15 447.46L23.25 445.3L24.38 443.15L25.56 441.03L26.79 438.93L28.05 436.85L29.36 434.8L30.7 432.76L32.09 430.76L33.52 428.77L34.98 426.82L36.49 424.88L38.04 422.98L39.63 421.1L41.25 419.24L42.92 417.42L44.63 415.63L44.97 415.27L45.32 414.91L45.67 414.56L46.02 414.21L46.38 413.86L46.73 413.51L47.09 413.16L47.45 412.81L47.8 412.46L48.16 412.11L48.53 411.77L48.89 411.42L49.25 411.08L49.62 410.74L49.99 410.4L50.36 410.06L50.73 409.72L51.1 409.39L51.47 409.05L51.84 408.72L52.22 408.39L52.6 408.06L52.98 407.73L53.36 407.4L53.74 407.07L54.12 406.75L54.5 406.42L54.89 406.1L55.28 405.78L55.66 405.46L56.05 405.15L56.45 404.83L56.84 404.52L57.23 404.21L57.63 403.9L58.02 403.59L58.42 403.28L58.82 402.98L59.22 402.68L59.63 402.38L58.84 399.68L58.09 396.98L57.36 394.28L56.67 391.58L56 388.86L55.36 386.15L54.75 383.43L54.17 380.71L53.61 377.98L53.09 375.25L52.59 372.51L52.13 369.77L51.69 367.03L51.28 364.28L50.9 361.53L50.55 358.78L50.23 356.02L49.94 353.26L49.67 350.5L49.44 347.73L49.23 344.96L49.06 342.19L48.91 339.42L48.79 336.64L48.7 333.86L48.64 331.07L48.61 328.29L48.61 325.5L48.63 322.71L48.69 319.92L48.78 317.12L48.89 314.32L49.04 311.52L49.21 308.72L49.42 305.92L49.65 303.11L49.91 300.31L50.2 297.5L50.52 294.69L50.88 291.88L52.08 283.58L53.53 275.37L55.24 267.25L57.18 259.22L59.36 251.29L61.78 243.46L64.43 235.73L67.3 228.11L70.4 220.6L73.71 213.21L77.24 205.94L80.98 198.79L84.93 191.77L89.07 184.89L93.42 178.14L97.96 171.53L102.69 165.06L107.61 158.75L112.71 152.59L117.98 146.58L123.44 140.73L129.06 135.05L134.84 129.54L140.79 124.2L146.9 119.03L153.16 114.05L159.57 109.25L166.13 104.64L172.83 100.22L179.67 96L186.64 91.98L193.74 88.17L200.97 84.56L208.32 81.17L215.79 77.99L223.37 75.03L231.06 72.3L238.86 69.8L246.75 67.53L254.75 65.5L244.63 61.5L244.34 61.38L244.06 61.25L243.79 61.12L243.52 60.97L243.27 60.81L243.02 60.64L242.78 60.47L242.55 60.28L242.33 60.09L242.12 59.89L241.91 59.68L241.71 59.46L241.53 59.24L241.35 59.01L241.18 58.78L241.02 58.54L240.87 58.29L240.73 58.04L240.6 57.78L240.48 57.52L240.37 57.25L240.28 56.98L240.19 56.7L240.11 56.42L240.04 56.14L239.98 55.86L239.93 55.57L239.9 55.28L239.87 54.99L239.86 54.7L239.86 54.4L239.87 54.11L239.89 53.81L239.92 53.52L239.97 53.22L240.02 52.92L240.09 52.63L240.18 52.33L240.27 52.04L240.37 51.75L240.49 51.46L240.62 51.18L240.76 50.91L240.91 50.65L241.07 50.39L241.23 50.15L241.41 49.91L241.59 49.68L241.79 49.45L241.99 49.24L242.19 49.04L242.41 48.84L242.63 48.65L242.86 48.48L243.1 48.31L243.34 48.15L243.59 48L243.84 47.86L244.1 47.73L244.36 47.61L244.63 47.5L244.9 47.4L245.17 47.31L245.45 47.23L245.73 47.16L246.02 47.11L246.3 47.06L246.59 47.02L246.88 47L247.18 46.99L247.47 46.98L247.77 46.99L248.06 47.02L248.36 47.05L248.66 47.09L248.95 47.15L249.25 47.22L249.54 47.3L249.83 47.39L250.13 47.5L284.25 61.88L284.5 61.88L284.54 61.88L284.57 61.89L284.61 61.91L284.65 61.92L284.68 61.93L284.72 61.94L284.75 61.95L284.79 61.96L284.82 61.98L284.85 61.99L284.89 62L284.92 62.02L284.95 62.03L284.98 62.05L285.02 62.06L285.05 62.08L285.08 62.09L285.11 62.11L285.14 62.12L285.17 62.14L285.2 62.16L285.23 62.17L285.26 62.19L285.29 62.21L285.32 62.23L285.35 62.24L285.38 62.26L285.41 62.28L285.44 62.3L285.47 62.31L285.5 62.33L285.52 62.35L285.55 62.37L285.58 62.39L285.61 62.41L285.64 62.43L285.67 62.44L285.69 62.46L285.72 62.48L285.75 62.5L285.78 62.51L285.81 62.52L285.83 62.53L285.86 62.54L285.89 62.55L285.91 62.56L285.94 62.58L285.96 62.59L285.99 62.6L286.01 62.62L286.03 62.63L286.06 62.64L286.08 62.66L286.1 62.67L286.13 62.69L286.15 62.7L286.17 62.72L286.19 62.73L286.21 62.75L286.23 62.77L286.26 62.78L286.28 62.8L286.3 62.82L286.32 62.83L286.34 62.85L286.36 62.87L286.38 62.89L286.4 62.9L286.42 62.92L286.44 62.94L286.45 62.96L286.47 62.98L286.49 62.99L286.51 63.01L286.53 63.03L286.55 63.05L286.57 63.07L286.59 63.09L286.62 63.13L287.62 64.13L287.63 64.13L287.63 64.14L287.63 64.15L287.63 64.16L287.63 64.17L287.63 64.17L287.64 64.18L287.64 64.19L287.64 64.19L287.64 64.2L287.65 64.2L287.65 64.21L287.66 64.22L287.66 64.22L287.66 64.23L287.67 64.23L287.67 64.24L287.68 64.24L287.68 64.25L287.69 64.25L287.7 64.26L287.7 64.26L287.71 64.27L287.71 64.27L287.71 64.28L287.72 64.28L287.72 64.29L287.73 64.3L287.73 64.3L287.73 64.31L287.74 64.31L287.74 64.32L287.74 64.33L287.74 64.33L287.75 64.34L287.75 64.35L287.75 64.36L287.75 64.37L287.75 64.38L287.76 64.38L287.77 64.38L287.78 64.38L287.78 64.38L287.79 64.38L287.8 64.38L287.8 64.39L287.81 64.39L287.82 64.39L287.82 64.39L287.83 64.4L287.83 64.4L287.84 64.41L287.84 64.41L287.84 64.41L287.85 64.42L287.85 64.42L287.85 64.43L287.86 64.43L287.86 64.44L287.86 64.44L287.86 64.45L287.87 64.45L287.87 64.46L287.87 64.46L287.87 64.46L287.87 64.47L287.87 64.47L287.87 64.48L287.87 64.49L287.87 64.49L287.87 64.5L287.88 64.51L287.88 64.52L287.88 64.53L287.88 64.53L287.88 64.54L287.88 64.55L287.89 64.56L287.89 64.56L287.89 64.57L287.89 64.57L287.9 64.58L287.9 64.59L287.91 64.59L287.91 64.6L287.91 64.6L287.92 64.61L287.92 64.61L287.93 64.62L287.93 64.62L287.94 64.63L287.95 64.63L287.95 64.64L287.96 64.64L287.96 64.65L287.96 64.65L287.97 64.66L287.97 64.66L287.98 64.67L287.98 64.68L287.98 64.68L287.99 64.69L287.99 64.69L287.99 64.7L287.99 64.71L288 64.72L288 64.72L288 64.73L288 64.74L288 64.76L288 64.77L288 64.78L288 64.79L288.01 64.8L288.01 64.81L288.01 64.82L288.01 64.83L288.02 64.83L288.02 64.84L288.02 64.85L288.03 64.86L288.03 64.87L288.04 64.88L288.04 64.89L288.04 64.9L288.05 64.91L288.05 64.92L288.07 64.95L288.08 64.97L288.08 64.98L288.09 64.98L288.09 64.99L288.09 65L288.1 65.01L288.1 65.02L288.11 65.03L288.11 65.04L288.11 65.05L288.11 65.06L288.12 65.07L288.12 65.08L288.12 65.09L288.12 65.1L288.12 65.11L288.12 65.12L288.13 65.13L288.13 65.14L288.13 65.15L288.13 65.16L288.13 65.17L288.13 65.18L288.14 65.19L288.14 65.2L288.14 65.21L288.14 65.22L288.15 65.23L288.15 65.24L288.16 65.25L288.16 65.26L288.16 65.27L288.17 65.28L288.17 65.28L288.18 65.29L288.19 65.32L288.2 65.34L288.21 65.35L288.21 65.36L288.21 65.37L288.22 65.38L288.22 65.39L288.23 65.4L288.23 65.41L288.23 65.42L288.24 65.43L288.24 65.43L288.24 65.44L288.24 65.45L288.25 65.46L288.25 65.47L288.25 65.48L288.25 65.49L288.25 65.5L288.27 65.52L288.28 65.53L288.3 65.55L288.31 65.56L288.32 65.57L288.33 65.58L288.33 65.59L288.34 65.6L288.34 65.6L288.35 65.61L288.35 65.61L288.35 65.62L288.36 65.62L288.36 65.63L288.36 65.63L288.36 65.63L288.37 65.64L288.37 65.64L288.37 65.65L288.37 65.65L288.37 65.66L288.37 65.66L288.37 65.67L288.37 65.68L288.37 65.69L288.37 65.71L288.37 65.72L288.37 65.74L288.37 65.87L288.38 65.88L288.39 65.89L288.4 65.9L288.41 65.91L288.41 65.92L288.41 65.92L288.42 65.93L288.42 65.93L288.43 65.94L288.43 65.95L288.44 65.95L288.44 65.96L288.45 65.97L288.45 65.98L288.46 65.98L288.46 65.99L288.46 66L288.47 66.01L288.47 66.02L288.48 66.02L288.48 66.03L288.48 66.04L288.49 66.05L288.49 66.06L288.49 66.07L288.49 66.08L288.5 66.09L288.5 66.1L288.5 66.11L288.5 66.12L288.5 66.13L288.5 66.14L288.5 66.15L288.5 66.16L288.51 66.17L288.51 66.18L288.51 66.19L288.51 66.2L288.52 66.21L288.52 66.22L288.52 66.23L288.53 66.24L288.53 66.25L288.54 66.26L288.54 66.27L288.54 66.28L288.55 66.28L288.55 66.29L288.57 66.32L288.58 66.34L288.58 66.35L288.59 66.36L288.59 66.37L288.59 66.38L288.6 66.39L288.6 66.4L288.61 66.41L288.61 66.42L288.61 66.43L288.61 66.43L288.62 66.44L288.62 66.45L288.62 66.46L288.62 66.47L288.62 66.48L288.62 66.49L288.63 66.51L288.63 66.52L288.63 66.53L288.63 66.54L288.63 66.55L288.63 66.56L288.64 66.57L288.64 66.58L288.64 66.58L288.64 66.59L288.65 66.6L288.65 66.61L288.66 66.62L288.66 66.63L288.66 66.64L288.67 66.65L288.67 66.66L288.68 66.67L288.69 66.7L288.7 66.72L288.71 66.73L288.71 66.73L288.71 66.74L288.72 66.75L288.72 66.76L288.73 66.77L288.73 66.78L288.73 66.79L288.74 66.8L288.74 66.81L288.74 66.82L288.74 66.83L288.75 66.84L288.75 66.85L288.75 66.86L288.75 66.87L288.75 66.88L288.75 69.96L288.75 70.01L288.75 70.02L288.75 70.03L288.75 70.04L288.74 70.05L288.74 70.06L288.74 70.07L288.74 70.08L288.73 70.08L288.73 70.09L288.73 70.1L288.72 70.11L288.72 70.12L288.71 70.13L288.71 70.14L288.71 70.15L288.7 70.16L288.7 70.17L288.68 70.2L288.67 70.22L288.67 70.23L288.66 70.23L288.66 70.24L288.66 70.25L288.65 70.26L288.65 70.27L288.64 70.28L288.64 70.29L288.64 70.3L288.64 70.31L288.63 70.32L288.63 70.33L288.63 70.34L288.63 70.35L288.63 70.36L288.63 70.37L288.62 70.38L288.61 70.39L288.59 70.41L288.58 70.42L288.56 70.44L288.55 70.45L288.55 70.45L288.54 70.46L288.53 70.47L288.53 70.48L288.53 70.48L288.52 70.49L288.52 70.49L288.52 70.5L288.52 70.5L288.51 70.5L288.51 70.51L288.51 70.51L288.51 70.52L288.51 70.52L288.51 70.53L288.5 70.53L288.5 70.54L288.5 70.55L288.5 70.56L288.5 70.57L288.5 70.58L288.5 70.6L288.5 70.63L288.5 70.63L288.5 70.64L288.5 70.66L288.5 70.67L288.49 70.68L288.49 70.69L288.49 70.7L288.49 70.71L288.48 70.73L288.48 70.74L288.48 70.75L288.47 70.76L288.47 70.78L288.46 70.79L288.46 70.81L288.46 70.82L288.45 70.83L288.45 70.85L288.43 70.9L288.42 70.92L288.42 70.93L288.41 70.94L288.41 70.96L288.41 70.97L288.4 70.99L288.4 71L288.39 71.01L288.39 71.02L288.39 71.04L288.39 71.05L288.38 71.06L288.38 71.07L288.38 71.08L288.38 71.09L288.38 71.11L288.38 71.12L288.37 71.13L288.37 71.13L288.36 71.13L288.35 71.13L288.34 71.13L288.33 71.13L288.33 71.13L288.32 71.14L288.31 71.14L288.31 71.14L288.3 71.14L288.3 71.15L288.29 71.15L288.29 71.16L288.28 71.16L288.28 71.16L288.28 71.17L288.27 71.17L288.27 71.18L288.27 71.18L288.27 71.19L288.26 71.19L288.26 71.2L288.26 71.2L288.26 71.21L288.26 71.21L288.26 71.21L288.25 71.22L288.25 71.22L288.25 71.23L288.25 71.23L288.25 71.24L288.25 71.25L287.87 72L287.75 72.13L287.75 72.13L287.75 72.14L287.75 72.15L287.75 72.16L287.74 72.17L287.74 72.17L287.74 72.18L287.74 72.19L287.73 72.19L287.73 72.2L287.73 72.2L287.72 72.21L287.72 72.22L287.71 72.22L287.71 72.23L287.71 72.23L287.7 72.24L287.7 72.24L287.69 72.25L287.68 72.25L287.68 72.26L287.67 72.26L287.67 72.27L287.66 72.27L287.66 72.28L287.66 72.28L287.65 72.29L287.65 72.3L287.64 72.3L287.64 72.31L287.64 72.31L287.64 72.32L287.63 72.33L287.63 72.33L287.63 72.34L287.63 72.35L287.63 72.36L287.63 72.37L287.62 72.38L287.5 72.5L287.5 72.51L287.5 72.52L287.5 72.53L287.5 72.54L287.49 72.55L287.49 72.56L287.49 72.57L287.49 72.58L287.48 72.58L287.48 72.59L287.47 72.6L287.47 72.61L287.46 72.62L287.46 72.63L287.45 72.64L287.45 72.65L287.44 72.66L287.44 72.67L287.43 72.68L287.42 72.69L287.41 72.7L287.41 72.71L287.4 72.72L287.39 72.73L287.38 72.73L287.38 72.74L287.37 72.75L287.36 72.76L287.35 72.77L287.34 72.78L287.33 72.79L287.32 72.8L287.31 72.81L287.31 72.82L287.29 72.84L287.28 72.85L287.25 72.88L287.25 72.88L287.25 72.89L287.25 72.9L287.25 72.91L287.24 72.92L287.24 72.92L287.24 72.93L287.24 72.94L287.23 72.94L287.23 72.95L287.23 72.95L287.22 72.96L287.22 72.97L287.21 72.97L287.21 72.98L287.21 72.98L287.2 72.99L287.2 72.99L287.19 73L287.18 73L287.18 73.01L287.17 73.01L287.17 73.02L287.16 73.02L287.16 73.03L287.16 73.03L287.15 73.04L287.15 73.05L287.14 73.05L287.14 73.06L287.14 73.06L287.14 73.07L287.13 73.08L287.13 73.08L287.13 73.09L287.13 73.1L287.13 73.11L287.13 73.12L287.12 73.13L286.75 73.5L260 99.75L259.89 99.85L259.77 99.95L259.66 100.05L259.54 100.14L259.42 100.24L259.3 100.33L259.18 100.41L259.06 100.5L258.93 100.58L258.81 100.66L258.69 100.74L258.56 100.82L258.43 100.89L258.3 100.96L258.17 101.03L258.04 101.09L257.91 101.15L257.78 101.22L257.65 101.27L257.52 101.33L257.38 101.38L257.25 101.43L257.11 101.48L256.98 101.52L256.84 101.57L256.7 101.6L256.57 101.64L256.43 101.68L256.29 101.71L256.15 101.74L256.01 101.76L255.87 101.79L255.73 101.81L255.59 101.82L255.45 101.84L255.31 101.85L255.17 101.86L255.03 101.87L254.89 101.87L254.75 101.88L254.6 101.87L254.45 101.87L254.3 101.86L254.15 101.85L254.01 101.84L253.86 101.82L253.71 101.81L253.57 101.79L253.42 101.76L253.28 101.73L253.13 101.7L252.99 101.67L252.85 101.64L252.71 101.6L252.57 101.56L252.43 101.52L252.29 101.47L252.15 101.42L252.01 101.37L251.87 101.31L251.74 101.25L251.61 101.19L251.47 101.13L251.34 101.07L251.21 101L251.08 100.92L250.95 100.85L250.82 100.77L250.69 100.69L250.57 100.61L250.44 100.52L250.32 100.44L250.2 100.34L250.07 100.25L249.95 100.15L249.84 100.05L249.72 99.95L249.6 99.84L249.49 99.74L249.37 99.63L249.16 99.4L248.97 99.16L248.78 98.92L248.6 98.68L248.43 98.43L248.28 98.17L248.13 97.91L248 97.64L247.87 97.38L247.76 97.1L247.66 96.83L247.57 96.55L247.49 96.27L247.42 95.99L247.36 95.7L247.31 95.42L247.28 95.13L247.25 94.84L247.24 94.55L247.23 94.27L247.24 93.98L247.26 93.69L247.29 93.4L247.33 93.12L247.38 92.83L247.45 92.55L247.52 92.27L247.61 92L247.7 91.72L247.81 91.45L247.93 91.18L248.06 90.92L248.2 90.66L248.35 90.41L248.52 90.16L248.69 89.92L248.88 89.68L249.07 89.44L249.28 89.22L249.5 89L258.75 79.88L251.18 81.78L243.71 83.91L236.33 86.26L229.05 88.83L221.87 91.61L214.81 94.6L207.85 97.8L201.01 101.19L194.29 104.79L187.69 108.58L181.22 112.56L174.88 116.73L168.67 121.08L162.6 125.61L156.67 130.32L150.89 135.2L145.26 140.24L139.78 145.45L134.46 150.82L129.3 156.34L124.3 162.02L119.47 167.85L114.82 173.82L110.34 179.93L106.04 186.18L101.93 192.56L98 199.07L94.26 205.71L90.72 212.46L87.38 219.34L84.24 226.33L81.31 233.43L78.59 240.64L76.08 247.95L73.79 255.36L71.72 262.86L69.88 270.46L68.27 278.14L66.89 285.9L65.75 293.75L65.43 296.29L65.14 298.83L64.88 301.37L64.64 303.9L64.43 306.43L64.24 308.97L64.07 311.5L63.93 314.03L63.82 316.55L63.73 319.08L63.67 321.6L63.63 324.12L63.62 326.64L63.63 329.15L63.67 331.67L63.73 334.18L63.82 336.69L63.93 339.2L64.07 341.7L64.23 344.2L64.42 346.7L64.64 349.2L64.87 351.69L65.14 354.19L65.43 356.67L65.74 359.16L66.08 361.64L66.44 364.12L66.83 366.6L67.24 369.07L67.68 371.54L68.15 374.01L68.63 376.47L69.15 378.93L69.69 381.39L70.25 383.85L70.84 386.3L71.45 388.74L72.09 391.19L72.75 393.63L74.93 392.41L77.12 391.24L79.34 390.11L81.57 389.03L83.82 387.99L86.09 387L88.38 386.05L90.68 385.15L92.99 384.29L95.32 383.48L97.67 382.71L100.03 381.99L102.4 381.31L104.78 380.68L107.17 380.1L109.58 379.56L111.99 379.07L114.41 378.62L116.84 378.23L119.28 377.88L121.73 377.57L124.18 377.31L126.64 377.1L129.1 376.94L131.57 376.82L134.04 376.76L136.51 376.73L138.99 376.76L141.46 376.84L143.94 376.96L146.42 377.13L148.9 377.35L151.37 377.62L153.85 377.94L156.32 378.31L158.79 378.72L161.26 379.19L163.72 379.7L166.17 380.26L168.62 380.88L169.06 380.99L169.49 381.12L169.92 381.27L170.34 381.42L170.75 381.59L171.16 381.76L171.56 381.95L171.95 382.15L172.34 382.36L172.72 382.58L173.09 382.81L173.45 383.05L173.81 383.3L174.16 383.56L174.5 383.83L174.83 384.12L175.15 384.4L175.46 384.7L175.77 385.01L176.06 385.33L176.35 385.65L176.62 385.99L176.89 386.33L177.15 386.68L177.39 387.04L177.63 387.4L177.86 387.78L178.07 388.16L178.28 388.55L178.47 388.94L178.65 389.35L178.82 389.76L178.98 390.17L179.13 390.59L179.26 391.02L179.38 391.46L179.49 391.9L179.59 392.34L179.68 392.79L179.75 393.25L179.81 393.71L179.85 394.17L179.89 394.62L179.9 395.08L179.91 395.54L179.9 395.99L179.88 396.44L179.85 396.89L179.8 397.34L179.74 397.78L179.67 398.22L179.59 398.66L179.49 399.09L179.38 399.52L179.26 399.95L179.13 400.37L178.99 400.79L178.83 401.2L178.66 401.61L178.48 402.02L178.29 402.41L178.09 402.81L177.88 403.19L177.65 403.57L177.42 403.95L177.17 404.31L176.91 404.67L176.64 405.03L176.37 405.37L176.08 405.71L175.78 406.04L175.47 406.37L175.15 406.68L174.81 406.99L174.47 407.28L174.12 407.57L173.76 407.85L173.39 408.12L173.01 408.38L172.62 408.63L171.9 409.08L171.19 409.54L170.47 410L169.76 410.47L169.06 410.94L168.35 411.42L167.65 411.9L166.96 412.39L166.27 412.88L165.58 413.38L164.89 413.89L164.21 414.4L163.53 414.91L162.86 415.43L162.19 415.96L161.52 416.49L160.86 417.02L160.2 417.56L159.54 418.11L158.89 418.66L158.24 419.21L157.6 419.77L156.96 420.34L156.33 420.91L155.7 421.49L155.07 422.07L154.45 422.65L153.83 423.25L153.21 423.84L152.6 424.45L152 425.05L151.4 425.67L150.8 426.28L150.21 426.91L149.62 427.53L149.04 428.17L148.46 428.8L147.88 429.45L147.31 430.1L146.75 430.75L145.73 431.95L144.72 433.16L143.74 434.38L142.77 435.61L141.82 436.86L140.89 438.12L139.98 439.39L139.09 440.67L138.22 441.96L137.36 443.26L136.53 444.58L135.71 445.9L134.91 447.24L134.14 448.58L133.38 449.94L132.64 451.31L131.92 452.69L131.22 454.07L130.54 455.47L129.87 456.88L129.23 458.29L128.61 459.72L128.01 461.15L127.43 462.59L126.86 464.04L126.32 465.5L125.8 466.97L125.3 468.45L124.82 469.93L124.36 471.43L123.91 472.93L123.49 474.43L123.09 475.95L122.71 477.47L122.36 479L122.02 480.54L121.7 482.08L121.4 483.63L121.13 485.19L120.87 486.75L123.99 490.48L127.17 494.15L130.41 497.75L133.7 501.28L137.06 504.74L140.48 508.13L143.95 511.45L147.48 514.69L151.06 517.87L154.7 520.97L158.39 524L162.14 526.96L165.93 529.84L169.78 532.65L173.67 535.38L177.62 538.03L181.61 540.61L185.65 543.12L189.73 545.54L193.86 547.89L198.03 550.16L202.25 552.35L206.5 554.46L210.8 556.49L215.14 558.44L219.52 560.31L223.93 562.1L228.39 563.8L232.88 565.42L237.4 566.96L241.96 568.41L246.55 569.78L251.18 571.07L255.83 572.26L260.52 573.38L265.23 574.4L269.98 575.34L274.75 576.19L279.55 576.95L284.37 577.63L294.74 578.76L305.05 579.46L315.31 579.75L325.49 579.62L335.59 579.08L345.61 578.15L355.53 576.82L365.34 575.11L375.04 573.02L384.61 570.55L394.05 567.73L403.34 564.54L412.48 561.01L421.46 557.13L430.27 552.92L438.9 548.38L447.34 543.51L455.59 538.33L463.62 532.85L471.44 527.06L479.03 520.98L486.39 514.62L493.5 507.97L500.36 501.05L506.95 493.87L513.28 486.43L519.32 478.74L525.07 470.8L530.53 462.63L535.67 454.23L540.5 445.6L545 436.76L549.16 427.71L552.98 418.46L556.45 409.02L559.55 399.38L562.27 389.57L564.62 379.59L566.57 369.44L568.12 359.13L568.53 355.81L568.9 352.48L569.22 349.16L569.5 345.84L569.73 342.52L569.92 339.19L570.07 335.87L570.17 332.55L570.23 329.23L570.25 325.91L570.22 322.6L570.15 319.28L570.03 315.97L569.88 312.67L569.68 309.36L569.43 306.07L569.15 302.77L568.82 299.48L568.45 296.2L568.03 292.92L567.57 289.65L567.07 286.39L566.53 283.13L565.95 279.88L565.32 276.64L564.65 273.41L563.94 270.18L563.18 266.97L562.39 263.76L561.55 260.56L560.67 257.38L559.75 254.21L558.79 251.04L557.78 247.89L556.73 244.75L555.64 241.62L554.51 238.51L553.34 235.41L552.13 232.32L550.87 229.25L549.97 229.9L549.06 230.54L548.15 231.17L547.23 231.79L546.3 232.4L545.37 233L544.43 233.59L543.48 234.17L542.54 234.73L541.58 235.29L540.62 235.83L539.65 236.37L538.68 236.89L537.7 237.41L536.72 237.91L535.74 238.4L534.74 238.88L533.74 239.35L532.74 239.8L531.73 240.25L530.72 240.68L529.7 241.11L528.68 241.52L527.66 241.92L526.62 242.31L525.59 242.69L524.55 243.06L523.5 243.41L522.45 243.75L521.4 244.09L520.34 244.41L519.28 244.71L518.21 245.01L517.14 245.29L516.06 245.57L514.98 245.83L513.9 246.08L512.81 246.31L511.72 246.54L510.62 246.75L511.4 248.66L512.16 250.57L512.9 252.48L513.62 254.4L514.32 256.33L515 258.26L515.66 260.2L516.3 262.14L516.92 264.08L517.52 266.03L518.1 267.99L518.66 269.95L519.2 271.91L519.72 273.88L520.22 275.85L520.71 277.83L521.17 279.81L521.61 281.8L522.03 283.79L522.44 285.78L522.82 287.78L523.19 289.78L523.53 291.79L523.86 293.8L524.16 295.82L524.45 297.84L524.71 299.86L524.96 301.89L525.18 303.92L525.39 305.95L525.58 307.99L525.75 310.03L525.89 312.08L526.02 314.13L526.13 316.18L526.22 318.24L526.29 320.3L526.34 322.36L526.37 324.43L526.38 326.5L526.35 329.85L526.27 333.2L526.14 336.53L525.96 339.86L525.73 343.18L525.44 346.49L525.11 349.78L524.72 353.07L524.28 356.35L523.79 359.61L523.26 362.87L522.67 366.11L522.03 369.33L521.33 372.55L520.59 375.75L519.8 378.94L518.96 382.11L518.07 385.26L517.13 388.41L516.14 391.53L515.1 394.64L514.01 397.73L512.87 400.81L511.69 403.86L510.45 406.9L509.17 409.92L507.83 412.92L506.45 415.91L505.02 418.87L503.54 421.81L502.01 424.73L500.44 427.63L498.82 430.51L497.15 433.36L495.43 436.19L493.66 439L491.85 441.79L489.99 444.55L488.08 447.29L486.13 450L486.02 450.15L485.91 450.29L485.8 450.44L485.68 450.57L485.56 450.71L485.44 450.84L485.32 450.97L485.19 451.09L485.06 451.21L484.92 451.33L484.79 451.45L484.65 451.56L484.51 451.66L484.36 451.77L484.22 451.87L484.07 451.96L483.92 452.06L483.76 452.15L483.61 452.23L483.45 452.31L483.3 452.39L483.14 452.46L482.98 452.53L482.81 452.6L482.65 452.66L482.49 452.72L482.32 452.78L482.15 452.83L481.99 452.87L481.82 452.92L481.65 452.96L481.48 452.99L481.31 453.02L481.14 453.05L480.97 453.07L480.8 453.09L480.63 453.11L480.46 453.12L480.29 453.12L480.12 453.13L480.01 453.12L479.9 453.12L479.79 453.12L479.68 453.11L479.56 453.1L479.45 453.09L479.34 453.08L479.23 453.07L479.11 453.05L479 453.03L478.89 453.01L478.78 452.99L478.67 452.97L478.56 452.94L478.44 452.91L478.33 452.89L478.22 452.85L478.11 452.82L478 452.79L477.89 452.75L477.78 452.71L477.67 452.67L477.56 452.63L477.45 452.59L477.34 452.54L477.23 452.49L477.13 452.44L477.02 452.39L476.91 452.34L476.8 452.28L476.7 452.22L476.59 452.17L476.48 452.1L476.38 452.04L476.27 451.98L476.17 451.91L476.06 451.84L475.96 451.77L475.85 451.7L475.75 451.63L475.5 451.43L475.26 451.23L475.04 451.03L474.82 450.81L474.61 450.59L474.41 450.37L474.22 450.14L474.04 449.9L473.88 449.65L473.72 449.4L473.57 449.15L473.44 448.89L473.31 448.63L473.2 448.36L473.09 448.09L473 447.82L472.92 447.55L472.85 447.27L472.78 446.99L472.73 446.7L472.7 446.42L472.67 446.13L472.65 445.85L472.65 445.56L472.65 445.27L472.67 444.98L472.7 444.7L472.74 444.41L472.79 444.12L472.85 443.84L472.92 443.55L473.01 443.27L473.11 442.99L473.22 442.72L473.34 442.44L473.47 442.17L473.62 441.9L473.77 441.64L473.94 441.38L474.12 441.13L475.94 438.61L477.71 436.07L479.44 433.51L481.13 430.93L482.77 428.32L484.36 425.7L485.91 423.05L487.42 420.38L488.88 417.7L490.3 414.99L491.67 412.26L493 409.51L494.29 406.75L495.52 403.97L496.72 401.17L497.86 398.35L498.97 395.51L500.02 392.66L501.03 389.79L502 386.91L502.92 384.01L503.79 381.09L504.62 378.16L505.4 375.22L506.13 372.26L506.82 369.29L507.46 366.3L508.06 363.31L508.6 360.3L509.11 357.28L509.56 354.24L509.97 351.2L510.32 348.15L510.64 345.08L510.9 342.01L511.12 338.92L511.28 335.83L511.4 332.73L511.48 329.62L511.5 326.5L511.49 324.47L511.46 322.44L511.41 320.41L511.34 318.39L511.24 316.38L511.13 314.36L511 312.35L510.84 310.35L510.67 308.35L510.47 306.35L510.26 304.36L510.02 302.37L509.77 300.39L509.49 298.41L509.19 296.43L508.88 294.46L508.54 292.5L508.18 290.53L507.8 288.58L507.41 286.63L506.99 284.68L506.55 282.73L506.09 280.8L505.61 278.86L505.12 276.93L504.6 275.01L504.06 273.09L503.5 271.18L502.92 269.27L502.32 267.37L501.71 265.47L501.07 263.58L500.41 261.69L499.73 259.81L499.03 257.93L498.32 256.06L497.58 254.19L496.82 252.33L496.05 250.47L495.25 248.63L495.16 248.63L495.06 248.64L494.97 248.65L494.88 248.66L494.78 248.67L494.69 248.67L494.59 248.68L494.5 248.69L494.41 248.69L494.31 248.7L494.22 248.7L494.13 248.71L494.04 248.71L493.94 248.72L493.85 248.72L493.76 248.72L493.67 248.73L493.57 248.73L493.48 248.73L493.39 248.73L493.3 248.74L493.21 248.74L493.12 248.74L493.03 248.74L492.94 248.74L492.85 248.74L492.76 248.75L492.67 248.75L492.58 248.75L492.49 248.75L492.4 248.75L492.31 248.75L492.23 248.75L492.14 248.75L492.05 248.75L491.97 248.75L491.88 248.75L491.79 248.75L491.71 248.75L491.62 248.75L487.47 248.67L483.36 248.41L479.3 248L475.28 247.43L471.32 246.7L467.41 245.81L463.56 244.78L459.77 243.6L456.05 242.27L452.4 240.81L448.81 239.21L445.31 237.47L441.88 235.61L438.53 233.62L435.26 231.5L432.09 229.26L429 226.91L426.01 224.44L423.12 221.86L420.33 219.17L417.64 216.38L415.06 213.49L412.59 210.5L410.24 207.41L408 204.24L405.88 200.97L403.89 197.62L402.03 194.19L400.29 190.69L398.69 187.1L397.23 183.45L395.9 179.73L394.72 175.94L393.69 172.09L392.8 168.18L392.07 164.22L391.5 160.2L391.09 156.14L390.83 152.03L390.75 147.88L390.75 146.63L388.99 145.91L387.23 145.22L385.47 144.54L383.69 143.88L381.92 143.24L380.13 142.61L378.35 142.01L376.55 141.42L374.75 140.85L372.95 140.3L371.14 139.76L369.33 139.25L367.51 138.75L365.69 138.27L363.87 137.81L362.04 137.36L360.2 136.94L358.36 136.53L356.52 136.14L354.67 135.77L352.82 135.41L350.97 135.08L349.11 134.76L347.24 134.46L345.38 134.18L343.51 133.91L341.63 133.67L339.76 133.44L337.88 133.23L335.99 133.04L334.11 132.86L332.22 132.71L330.33 132.57L328.43 132.45L326.53 132.35L324.63 132.27L322.73 132.21L320.82 132.16L318.91 132.13L317 132.13L309 132.29L301.09 132.77L293.26 133.57L285.53 134.67L277.89 136.08L270.36 137.78L262.95 139.77L255.65 142.04L248.48 144.59L241.44 147.41L234.53 150.5L227.77 153.84L221.16 157.43L214.71 161.27L208.42 165.35L202.3 169.66L196.36 174.19L190.59 178.95L185.02 183.92L179.64 189.09L174.46 194.47L169.49 200.04L164.73 205.8L160.19 211.75L155.88 217.87L151.8 224.16L147.96 230.61L144.36 237.22L141.02 243.98L137.93 250.88L135.11 257.93L132.56 265.1L130.28 272.4L128.29 279.82L126.58 287.36L125.18 295L124.07 302.74L123.27 310.57L122.79 318.5L122.62 326.5L122.63 326.87L122.63 327.23L122.63 327.6L122.63 327.96L122.63 328.33L122.63 328.69L122.64 329.06L122.64 329.43L122.65 329.79L122.65 330.16L122.66 330.52L122.66 330.89L122.67 331.25L122.68 331.62L122.68 331.98L122.69 332.35L122.7 332.72L122.71 333.08L122.72 333.45L122.73 333.81L122.75 334.18L122.76 334.54L122.77 334.91L122.79 335.28L122.8 335.64L122.82 336.01L122.83 336.37L122.85 336.74L122.87 337.1L122.89 337.47L122.91 337.83L122.93 338.2L122.95 338.57L122.97 338.93L123 339.3L123.02 339.66L123.04 340.03L123.07 340.39L123.1 340.76L123.12 341.13L123.15 341.43L123.16 341.74L123.15 342.04L123.13 342.34L123.11 342.64L123.07 342.94L123.01 343.23L122.95 343.52L122.88 343.8L122.79 344.08L122.69 344.35L122.58 344.62L122.47 344.89L122.34 345.15L122.2 345.4L122.06 345.65L121.9 345.89L121.73 346.13L121.56 346.36L121.37 346.58L121.18 346.79L120.98 347L120.78 347.2L120.56 347.39L120.34 347.57L120.11 347.75L119.87 347.91L119.62 348.07L119.37 348.21L119.12 348.35L118.85 348.48L118.59 348.59L118.31 348.7L118.03 348.79L117.75 348.88L117.45 348.95L117.16 349.01L116.86 349.06L116.56 349.1L116.25 349.13L115.62 349.13L115.34 349.12L115.05 349.1L114.76 349.08L114.48 349.04L114.2 348.99L113.92 348.93L113.65 348.86L113.38 348.78L113.12 348.69L112.85 348.59L112.6 348.49L112.34 348.37L112.1 348.24L111.85 348.11L111.61 347.96L111.38 347.81L111.16 347.65L110.94 347.48L110.72 347.31L110.52 347.13L110.32 346.93L110.12 346.74L109.94 346.53L109.76 346.32L109.59 346.1L109.42 345.87L109.27 345.64L109.12 345.4L108.99 345.16L108.86 344.91L108.74 344.65L108.63 344.39L108.53 344.12L108.44 343.85L108.36 343.57L108.29 343.29L108.23 343.01L108.19 342.72L108.15 342.42L108.12 342.13L108.1 341.73L108.07 341.34L108.04 340.94L108.02 340.55L107.99 340.16L107.97 339.76L107.94 339.37L107.92 338.98L107.89 338.58L107.87 338.19L107.85 337.79L107.82 337.4L107.8 337.01L107.78 336.61L107.76 336.22L107.74 335.83L107.72 335.43L107.71 335.04L107.69 334.64L107.67 334.25L107.66 333.86L107.64 333.46L107.63 333.07L107.61 332.68L107.6 332.28L107.59 331.89L107.57 331.49L107.56 331.1L107.55 330.71L107.54 330.31L107.54 329.92L107.53 329.53L107.52 329.13L107.52 328.74L107.51 328.34L107.51 327.95L107.5 327.56L107.5 327.16L107.5 326.77L107.5 326.38L107.67 317.76L108.2 309.24L109.05 300.81L110.24 292.48L111.76 284.25L113.59 276.14L115.74 268.16L118.19 260.3L120.93 252.57L123.97 244.99L127.3 237.55L130.9 230.27L134.77 223.15L138.9 216.2L143.29 209.43L147.94 202.83L152.82 196.43L157.95 190.22L163.3 184.22L168.87 178.42L174.67 172.84L180.67 167.49L186.88 162.36L193.28 157.47L199.87 152.83L206.64 148.43L213.6 144.29L220.71 140.42L228 136.82L235.43 133.49L243.02 130.45L250.75 127.7L258.61 125.25L266.6 123.1L274.72 121.26L282.95 119.75L291.28 118.56L299.72 117.7L308.25 117.18L316.87 117L318.81 117.01L320.75 117.03L322.69 117.08L324.62 117.14L326.55 117.22L328.47 117.31L330.4 117.42L332.32 117.56L334.24 117.7L336.15 117.87L338.07 118.05L339.98 118.25L341.88 118.47L343.79 118.7L345.69 118.95L347.59 119.22L349.48 119.51L351.37 119.81L353.26 120.13L355.14 120.47L357.02 120.82L358.9 121.2L360.77 121.59L362.64 122L364.51 122.42L366.37 122.86L368.23 123.32L370.08 123.8L371.93 124.29L373.78 124.8L375.62 125.33L377.46 125.88L379.29 126.44L381.12 127.02L382.94 127.62L384.76 128.24L386.58 128.87L388.39 129.52L390.2 130.19L392 130.88L392.19 129.78L392.4 128.69L392.62 127.6L392.84 126.51L393.08 125.43L393.34 124.35L393.6 123.28L393.87 122.21L394.16 121.14L394.46 120.08L394.77 119.02L395.09 117.97L395.42 116.91L395.76 115.87L396.12 114.82L396.48 113.79L396.86 112.75L397.25 111.72L397.65 110.69L398.06 109.67L398.49 108.65L398.92 107.64L399.36 106.63L399.82 105.63L400.29 104.63L400.77 103.64L401.26 102.65L401.76 101.66L402.27 100.68L402.79 99.71L403.33 98.74L403.87 97.78L404.43 96.82L404.99 95.86L405.57 94.91L406.16 93.97L406.76 93.03L407.37 92.1L407.99 91.17L408.63 90.25L407.2 89.71L405.77 89.18L404.34 88.65L402.9 88.14L401.47 87.63L400.02 87.13L398.58 86.64L397.14 86.16L395.69 85.68L394.24 85.22L392.78 84.76L391.33 84.31L389.87 83.87L388.4 83.43L386.94 83.01L385.47 82.59L384 82.19L382.53 81.79L381.06 81.4L379.58 81.02L378.1 80.64L376.62 80.28L375.13 79.92L373.64 79.58L372.15 79.24L370.66 78.91L369.16 78.59L367.67 78.28L366.16 77.98L364.66 77.68L363.16 77.4L361.65 77.12L360.14 76.86L358.63 76.6L357.11 76.35L355.59 76.11L354.07 75.88L352.55 75.66L351.03 75.45L349.5 75.25L349.19 75.21L348.89 75.15L348.59 75.08L348.3 75.01L348.02 74.92L347.74 74.82L347.46 74.7L347.19 74.58L346.93 74.45L346.67 74.31L346.42 74.16L346.18 74L345.95 73.83L345.72 73.65L345.5 73.47L345.29 73.27L345.08 73.07L344.88 72.86L344.7 72.65L344.52 72.42L344.34 72.19L344.18 71.95L344.03 71.71L343.88 71.46L343.75 71.21L343.62 70.95L343.51 70.68L343.4 70.41L343.31 70.13L343.22 69.85L343.15 69.57L343.09 69.28L343.04 68.99L343 68.7L342.97 68.4L342.95 68.1L342.94 67.8L342.95 67.49L342.97 67.18L343 66.88L343.04 66.57L343.1 66.27L343.17 65.97L343.24 65.68L343.33 65.39L343.43 65.11L343.55 64.84L343.67 64.57L343.8 64.3L343.94 64.05L344.09 63.8L344.25 63.56L344.42 63.32L344.6 63.09L344.78 62.87L344.98 62.66L345.18 62.46L345.39 62.26L345.6 62.07L345.83 61.89L346.06 61.72L346.3 61.56L346.54 61.4L346.79 61.26L347.04 61.12L347.3 61L347.57 60.88L347.84 60.78L348.12 60.68L348.4 60.6L348.68 60.53L348.97 60.46L349.26 60.41L349.55 60.37L349.85 60.34L350.15 60.32L350.45 60.32L350.76 60.33L351.07 60.34L351.37 60.38L353.11 60.61L354.84 60.85L356.57 61.1L358.3 61.36L360.02 61.64L361.74 61.93L363.47 62.22L365.18 62.53L366.9 62.85L368.61 63.18L370.32 63.53L372.03 63.88L373.74 64.24L375.44 64.62L377.14 65L378.84 65.4L380.53 65.81L382.22 66.22L383.91 66.65L385.59 67.09L387.27 67.54L388.95 68.01L390.63 68.48L392.3 68.96L393.97 69.45L395.63 69.96L397.29 70.47L398.95 71L400.6 71.54L402.25 72.08L403.89 72.64L405.53 73.21L407.17 73.79L408.8 74.37L410.43 74.97L412.05 75.58L413.67 76.2L415.28 76.83L416.89 77.47L418.5 78.13L419.8 76.79L421.13 75.48L422.48 74.19L423.85 72.94L425.24 71.71L426.65 70.5L428.08 69.33L429.54 68.18L431.01 67.06L432.49 65.97L434 64.91L435.53 63.87L437.07 62.87L438.63 61.89L440.21 60.94L441.8 60.02L443.41 59.13L445.03 58.27L446.67 57.44L448.33 56.64L450 55.87L451.68 55.13L453.38 54.42L455.09 53.74L456.81 53.1L458.54 52.48L460.29 51.9L462.04 51.34L463.81 50.82L465.59 50.33L467.38 49.88L469.18 49.45L470.99 49.06L472.81 48.7L474.63 48.38L476.47 48.08L478.31 47.82L480.16 47.6L482.01 47.41L483.87 47.25L483.87 16.25L483.88 15.94L483.9 15.64L483.93 15.34L483.97 15.04L484.03 14.74L484.09 14.45L484.17 14.17L484.26 13.89L484.36 13.61L484.47 13.34L484.59 13.07L484.72 12.81L484.85 12.56L485 12.31L485.16 12.06L485.33 11.83L485.5 11.6L485.69 11.38L485.88 11.16L486.08 10.95L486.29 10.75L486.5 10.56L486.72 10.38L486.95 10.2L487.19 10.04L487.43 9.88L487.68 9.73L487.94 9.59L488.2 9.46L488.46 9.34L488.73 9.23L489.01 9.13L489.29 9.05L489.58 8.97L489.87 8.9L490.16 8.85L490.46 8.81L490.76 8.77L491.07 8.76L491.37 8.75L491.68 8.76L491.99 8.77L492.29 8.81L492.59 8.85L492.88 8.9L493.17 8.97L493.46 9.05L493.74 9.13L494.02 9.23L494.29 9.34L494.55 9.46L494.81 9.59L495.07 9.73L495.32 9.88L495.56 10.04L495.8 10.2L496.03 10.38L496.25 10.56L496.46 10.75L496.67 10.95L496.87 11.16L497.06 11.38L497.25 11.6L497.42 11.83L497.59 12.06L497.75 12.31L497.9 12.56L498.03 12.81L498.16 13.07L498.28 13.34L498.39 13.61L498.49 13.89L498.58 14.17L498.66 14.45L498.72 14.74L498.78 15.04L498.82 15.34L498.85 15.64L498.87 15.94L498.87 16.25L498.87 47.25L500.49 47.38L502.11 47.54L503.72 47.73L505.32 47.94L506.92 48.17L508.5 48.43L510.09 48.72L511.67 49.03L513.23 49.36L514.8 49.72L516.35 50.1L517.9 50.51L519.44 50.94L520.97 51.39L522.49 51.87L524.01 52.38L525.51 52.9L527.01 53.45L528.49 54.03L529.97 54.63L531.44 55.25L532.89 55.89L534.34 56.56L535.78 57.25L537.2 57.96L538.61 58.7L540.02 59.46L541.41 60.24L542.79 61.05L544.16 61.88L545.51 62.73L546.86 63.6L548.19 64.49L549.5 65.41L550.81 66.35L552.1 67.31L553.38 68.29L554.64 69.3L555.89 70.33L557.13 71.38L618 10.5L618.23 10.29L618.46 10.09L618.7 9.9L618.95 9.72L619.2 9.56L619.46 9.4L619.72 9.25L619.98 9.12L620.25 9L620.52 8.88L620.8 8.78L621.07 8.69L621.36 8.61L621.64 8.54L621.92 8.48L622.21 8.43L622.5 8.39L622.78 8.37L623.07 8.35L623.36 8.34L623.65 8.35L623.94 8.37ZM131.04 391.83L128.65 391.97L126.26 392.15L123.89 392.39L121.52 392.67L119.15 393.01L116.8 393.39L114.45 393.83L112.11 394.31L109.79 394.85L107.48 395.43L105.17 396.06L102.88 396.74L100.61 397.48L98.35 398.26L96.1 399.09L93.87 399.96L91.66 400.89L89.47 401.86L87.29 402.89L85.13 403.96L82.99 405.07L80.87 406.24L78.78 407.45L76.7 408.71L74.65 410.02L72.62 411.37L72.5 411.5L72.03 411.82L71.57 412.14L71.1 412.47L70.64 412.8L70.18 413.13L69.72 413.46L69.26 413.8L68.81 414.14L68.36 414.48L67.91 414.82L67.46 415.17L67.01 415.52L66.56 415.87L66.12 416.22L65.68 416.58L65.24 416.94L64.8 417.3L64.37 417.66L63.93 418.02L63.5 418.39L63.07 418.76L62.64 419.13L62.21 419.5L61.79 419.88L61.37 420.26L60.95 420.64L60.53 421.02L60.11 421.4L59.69 421.78L59.28 422.17L58.87 422.56L58.46 422.95L58.05 423.34L57.65 423.73L57.24 424.13L56.84 424.52L56.44 424.92L56.04 425.32L55.64 425.72L55.25 426.13L52.21 429.4L49.32 432.77L46.59 436.23L44.01 439.78L41.59 443.42L39.33 447.12L37.22 450.9L35.27 454.75L33.47 458.65L31.84 462.61L30.35 466.63L29.03 470.68L27.86 474.78L26.84 478.92L25.98 483.08L25.28 487.27L24.73 491.48L24.34 495.71L24.11 499.95L24.03 504.19L24.11 508.43L24.34 512.67L24.73 516.89L25.28 521.1L25.98 525.29L26.84 529.46L27.86 533.59L29.03 537.69L30.35 541.75L31.84 545.76L33.47 549.72L35.27 553.63L37.22 557.47L39.33 561.25L41.59 564.96L44.01 568.59L46.59 572.14L49.32 575.6L52.21 578.97L55.25 582.25L57.39 584.41L59.57 586.51L61.81 588.53L64.09 590.5L66.41 592.39L68.79 594.22L71.2 595.97L73.66 597.66L76.15 599.28L78.69 600.84L81.26 602.32L83.86 603.73L86.5 605.07L89.17 606.34L91.87 607.54L94.6 608.66L97.35 609.72L100.13 610.7L102.94 611.6L105.77 612.44L108.61 613.2L111.48 613.88L114.37 614.49L117.27 615.03L120.19 615.49L123.11 615.87L126.06 616.18L129.01 616.41L131.97 616.56L134.93 616.63L137.9 616.63L140.88 616.55L143.86 616.38L146.83 616.14L149.81 615.82L152.78 615.42L155.75 614.94L158.72 614.37L161.68 613.73L164.63 613L164.63 613L164.64 613L164.65 613L164.66 613L164.67 612.99L164.67 612.99L164.68 612.99L164.69 612.99L164.69 612.98L164.7 612.98L164.7 612.97L164.71 612.97L164.71 612.96L164.72 612.96L164.72 612.95L164.72 612.95L164.73 612.94L164.73 612.94L164.73 612.93L164.73 612.92L164.74 612.91L164.74 612.91L164.74 612.9L164.74 612.89L164.74 612.88L164.74 612.88L164.75 612.87L164.75 612.86L164.75 612.85L164.75 612.84L164.75 612.83L164.75 612.82L164.75 612.81L164.75 612.81L164.75 612.79L164.75 612.78L164.75 612.75L164.63 612.63L163.8 612.11L162.98 611.58L162.17 611.05L161.36 610.52L160.55 609.98L159.75 609.43L158.95 608.88L158.16 608.32L157.37 607.76L156.59 607.19L155.81 606.61L155.04 606.03L154.27 605.45L153.5 604.86L152.74 604.26L151.98 603.66L151.23 603.05L150.48 602.43L149.74 601.81L149 601.19L148.27 600.56L147.54 599.92L146.81 599.28L146.09 598.63L145.38 597.98L144.67 597.32L143.96 596.65L143.26 595.98L142.57 595.31L141.88 594.63L141.19 593.94L140.51 593.25L139.84 592.55L139.17 591.84L138.5 591.13L137.84 590.42L137.19 589.7L136.54 588.97L135.89 588.24L135.25 587.5L133.52 585.46L131.84 583.38L130.2 581.28L128.62 579.14L127.08 576.97L125.58 574.77L124.14 572.55L122.75 570.29L121.4 568.01L120.1 565.71L118.85 563.38L117.66 561.02L116.51 558.64L115.41 556.24L114.36 553.82L113.36 551.37L112.41 548.91L111.52 546.43L110.67 543.92L109.88 541.41L109.13 538.87L108.44 536.32L107.8 533.76L107.22 531.18L106.68 528.59L106.2 525.98L105.77 523.37L105.39 520.74L105.07 518.11L104.8 515.46L104.59 512.81L104.43 510.16L104.32 507.49L104.27 504.82L104.28 502.15L104.34 499.47L104.45 496.79L104.62 494.11L104.84 491.43L105.13 488.75L105.13 488.7L105.13 488.66L105.13 488.61L105.13 488.56L105.13 488.52L105.13 488.47L105.14 488.42L105.14 488.38L105.14 488.33L105.15 488.28L105.15 488.23L105.16 488.19L105.16 488.14L105.17 488.09L105.17 488.05L105.18 488L105.18 487.95L105.19 487.91L105.2 487.86L105.2 487.81L105.21 487.77L105.22 487.72L105.23 487.67L105.23 487.63L105.24 487.58L105.25 487.53L105.26 487.48L105.27 487.44L105.27 487.39L105.28 487.34L105.29 487.3L105.3 487.25L105.31 487.2L105.32 487.16L105.33 487.11L105.34 487.06L105.35 487.02L105.36 486.97L105.37 486.92L105.38 486.88L105.64 485.04L105.93 483.21L106.25 481.39L106.59 479.58L106.96 477.77L107.35 475.97L107.77 474.18L108.22 472.39L108.69 470.61L109.18 468.85L109.7 467.09L110.24 465.33L110.81 463.59L111.4 461.86L112.02 460.14L112.66 458.42L113.33 456.72L114.02 455.03L114.73 453.34L115.47 451.67L116.23 450.01L117.02 448.36L117.83 446.72L118.66 445.1L119.52 443.48L120.4 441.88L121.3 440.29L122.23 438.71L123.18 437.15L124.15 435.6L125.14 434.06L126.16 432.54L127.2 431.03L128.27 429.53L129.36 428.05L130.46 426.59L131.6 425.14L132.75 423.7L133.93 422.28L135.13 420.88L135.77 420.14L136.41 419.4L137.06 418.68L137.72 417.95L138.38 417.24L139.04 416.53L139.71 415.82L140.39 415.12L141.07 414.42L141.75 413.73L142.44 413.05L143.14 412.37L143.84 411.7L144.54 411.03L145.25 410.37L145.97 409.71L146.69 409.06L147.41 408.41L148.14 407.77L148.88 407.14L149.61 406.51L150.36 405.89L151.1 405.28L151.86 404.67L152.61 404.06L153.37 403.46L154.14 402.87L154.91 402.29L155.69 401.71L156.46 401.13L157.25 400.57L158.04 400.01L158.83 399.45L159.63 398.9L160.43 398.36L161.23 397.83L162.04 397.3L162.86 396.78L163.68 396.26L164.5 395.75L164.51 395.75L164.52 395.75L164.53 395.75L164.53 395.75L164.54 395.74L164.55 395.74L164.55 395.74L164.56 395.74L164.57 395.73L164.57 395.73L164.58 395.73L164.58 395.72L164.59 395.72L164.59 395.71L164.59 395.71L164.6 395.71L164.6 395.7L164.6 395.7L164.61 395.69L164.61 395.69L164.61 395.68L164.61 395.68L164.62 395.67L164.62 395.67L164.62 395.66L164.62 395.66L164.62 395.66L164.62 395.65L164.62 395.64L164.62 395.64L164.62 395.64L164.63 395.62L164.63 395.62L164.64 395.61L164.65 395.6L164.66 395.59L164.66 395.58L164.67 395.57L164.67 395.56L164.67 395.55L164.68 395.54L164.68 395.53L164.68 395.52L164.68 395.52L164.68 395.51L164.68 395.5L164.68 395.49L164.68 395.48L164.68 395.48L164.68 395.47L164.67 395.46L164.67 395.45L164.67 395.45L164.67 395.44L164.66 395.43L164.66 395.43L164.66 395.42L164.65 395.42L164.65 395.41L164.65 395.41L164.64 395.4L164.64 395.39L164.63 395.38L164.63 395.37L162.24 394.78L159.85 394.24L157.46 393.76L155.06 393.32L152.66 392.94L150.26 392.61L147.85 392.33L145.45 392.11L143.04 391.93L140.63 391.81L138.23 391.74L135.83 391.72L133.43 391.75L131.04 391.83ZM487.64 62.08L485.77 62.18L483.92 62.32L482.07 62.5L480.23 62.73L478.4 62.99L476.57 63.28L474.76 63.62L472.96 64L471.16 64.41L469.38 64.87L467.61 65.36L465.85 65.88L464.1 66.45L462.37 67.05L460.65 67.69L458.94 68.37L457.25 69.08L455.58 69.83L453.92 70.61L452.28 71.43L450.65 72.29L449.05 73.18L447.46 74.1L445.89 75.06L444.34 76.06L442.81 77.09L441.31 78.15L439.82 79.24L438.35 80.37L436.91 81.54L435.49 82.73L434.1 83.96L432.72 85.22L431.38 86.51L430.06 87.84L428.76 89.19L427.49 90.58L426.25 92L425.35 93.07L424.47 94.14L423.61 95.23L422.77 96.33L421.94 97.45L421.14 98.57L420.36 99.7L419.6 100.85L418.85 102.01L418.13 103.17L417.42 104.35L416.74 105.54L416.07 106.73L415.43 107.94L414.8 109.16L414.2 110.38L413.62 111.62L413.05 112.86L412.51 114.11L411.98 115.38L411.48 116.64L411 117.92L410.54 119.21L410.1 120.5L409.67 121.8L409.27 123.11L408.89 124.43L408.54 125.75L408.2 127.08L407.88 128.42L407.58 129.77L407.31 131.12L407.06 132.47L406.82 133.83L406.61 135.2L406.42 136.58L406.25 137.96L406.11 139.34L405.98 140.73L405.88 142.13L405.87 142.28L405.86 142.44L405.85 142.6L405.84 142.76L405.82 143.06L405.81 143.22L405.8 143.37L405.79 143.52L405.78 143.67L405.77 143.82L405.77 143.97L405.76 144.12L405.75 144.26L405.74 144.41L405.73 144.56L405.73 144.7L405.72 144.84L405.71 144.98L405.7 145.13L405.7 145.27L405.69 145.4L405.68 145.54L405.68 145.68L405.67 145.82L405.67 145.95L405.66 146.09L405.66 146.22L405.65 146.35L405.65 146.48L405.64 146.62L405.64 146.75L405.64 146.87L405.63 147L405.63 147.13L405.63 147.26L405.63 147.38L405.63 147.5L405.63 147.63L405.63 147.75L405.7 151.29L405.91 154.79L406.26 158.25L406.75 161.67L407.37 165.04L408.12 168.37L409 171.65L410.01 174.87L411.13 178.04L412.38 181.15L413.74 184.2L415.22 187.19L416.81 190.11L418.5 192.96L420.3 195.74L422.21 198.44L424.21 201.07L426.31 203.62L428.51 206.08L430.8 208.45L433.17 210.74L435.63 212.94L438.18 215.04L440.81 217.04L443.51 218.95L446.29 220.75L449.14 222.44L452.06 224.03L455.05 225.51L458.1 226.87L461.21 228.12L464.38 229.24L467.6 230.25L470.88 231.13L474.21 231.88L477.58 232.5L481 232.99L484.46 233.34L487.96 233.55L491.5 233.63L491.68 233.62L491.86 233.62L492.04 233.62L492.22 233.62L492.4 233.62L492.58 233.62L492.76 233.61L492.94 233.61L493.12 233.61L493.31 233.6L493.49 233.6L493.67 233.59L493.86 233.59L494.05 233.58L494.23 233.57L494.42 233.57L494.61 233.56L494.79 233.55L494.98 233.54L495.17 233.53L495.36 233.52L495.55 233.51L495.74 233.5L495.94 233.49L496.13 233.48L496.32 233.47L496.52 233.45L496.71 233.44L496.91 233.43L497.11 233.41L497.31 233.4L497.5 233.39L497.7 233.37L497.9 233.35L498.11 233.34L498.31 233.32L498.51 233.3L498.71 233.29L498.92 233.27L499.13 233.25L500.51 233.11L501.89 232.95L503.26 232.76L504.63 232.56L505.99 232.33L507.35 232.08L508.7 231.82L510.05 231.53L511.38 231.22L512.71 230.89L514.04 230.54L515.36 230.17L516.67 229.78L517.97 229.37L519.27 228.93L520.55 228.48L521.83 228.01L523.11 227.52L524.37 227L525.63 226.47L526.87 225.91L528.11 225.34L529.34 224.75L530.56 224.13L531.77 223.5L532.98 222.85L534.17 222.17L535.35 221.48L536.53 220.76L537.69 220.03L538.85 219.28L539.99 218.51L541.12 217.71L542.24 216.9L543.36 216.07L544.46 215.22L545.55 214.35L546.63 213.46L547.69 212.55L548.75 211.63L550.09 210.39L551.41 209.14L552.7 207.85L553.95 206.55L555.18 205.21L556.37 203.86L557.54 202.48L558.67 201.08L559.78 199.66L560.85 198.22L561.89 196.75L562.9 195.27L563.88 193.76L564.82 192.24L565.73 190.7L566.61 189.14L567.46 187.56L568.27 185.97L569.05 184.36L569.8 182.73L570.51 181.09L571.19 179.44L571.83 177.77L572.44 176.08L573.01 174.39L573.55 172.68L574.05 170.96L574.52 169.23L574.95 167.48L575.35 165.73L575.7 163.97L576.03 162.19L576.31 160.41L576.56 158.62L576.77 156.83L576.94 155.02L577.08 153.21L577.17 151.4L577.23 149.58L577.25 147.75L577.23 146.04L577.18 144.33L577.1 142.63L576.99 140.93L576.84 139.24L576.66 137.56L576.44 135.89L576.2 134.22L575.92 132.56L575.61 130.91L575.27 129.27L574.89 127.64L574.49 126.02L574.05 124.4L573.58 122.8L573.09 121.21L572.56 119.63L572 118.06L571.4 116.5L570.78 114.95L570.13 113.42L569.45 111.9L568.73 110.39L567.99 108.9L567.22 107.42L566.41 105.95L565.58 104.5L564.72 103.06L563.83 101.64L562.91 100.24L561.96 98.85L560.98 97.47L559.97 96.12L558.93 94.78L557.87 93.46L556.78 92.15L555.66 90.87L554.51 89.6L553.33 88.35L552.13 87.13L550.9 85.92L549.65 84.74L548.38 83.59L547.09 82.47L545.79 81.38L544.46 80.32L543.12 79.28L541.76 78.27L540.39 77.29L538.99 76.34L537.59 75.42L536.16 74.53L534.72 73.67L533.26 72.84L531.79 72.03L530.31 71.26L528.81 70.52L527.3 69.8L525.77 69.12L524.23 68.47L522.68 67.85L521.12 67.25L519.55 66.69L517.96 66.16L516.36 65.67L514.76 65.2L513.14 64.76L511.51 64.36L509.88 63.98L508.23 63.64L506.58 63.33L504.92 63.05L503.25 62.81L501.57 62.59L499.89 62.41L498.2 62.26L496.5 62.15L494.8 62.07L493.09 62.02L491.38 62L489.5 62.02L487.64 62.08Z" id="avGvn1hLN"></path><path d="M309.38 199.38C309.38 212.09 309.38 313.79 309.38 326.5C309.38 328.5 310.13 330.38 311.5 331.75C316.38 336.76 355.38 376.86 360.25 381.88C361.75 383.38 363.63 384.13 365.63 384.13C367.5 384.13 369.38 383.38 370.88 382C373.87 379.13 373.87 374.38 371 371.38C367.89 368.18 352.35 352.23 324.38 323.5C324.38 249.02 324.38 207.65 324.38 199.38C324.38 195.13 321 191.88 316.88 191.88C312.75 191.88 309.38 195.25 309.38 199.38Z" id="b35d4B2Eq"></path></defs><g><g><g><use xlink:href="#btKBXLQIf" opacity="1" fill="#f20d0d" fill-opacity="1"></use><g><use xlink:href="#btKBXLQIf" opacity="1" fill-opacity="0" stroke="#000000" stroke-width="1" stroke-opacity="0"></use></g></g><g><use xlink:href="#avGvn1hLN" opacity="1" fill="#f20d0d" fill-opacity="1"></use><g><use xlink:href="#avGvn1hLN" opacity="1" fill-opacity="0" stroke="#000000" stroke-width="1" stroke-opacity="0"></use></g></g><g><use xlink:href="#b35d4B2Eq" opacity="1" fill="#f20d0d" fill-opacity="1"></use><g><use xlink:href="#b35d4B2Eq" opacity="1" fill-opacity="0" stroke="#000000" stroke-width="1" stroke-opacity="0"></use></g></g></g></g></svg>